<svg id="Group_8614" data-name="Group 8614" xmlns="http://www.w3.org/2000/svg" width="42" height="42" viewBox="0 0 42 42">
  <g id="Ellipse_19" data-name="Ellipse 19" fill="rgba(236,241,244,0.4)" stroke="#ecf1f4" stroke-width="1">
    <circle cx="21" cy="21" r="21" stroke="none"/>
    <circle cx="21" cy="21" r="20.5" fill="none"/>
  </g>
  <path id="instagram" d="M12.422,9.317A3.107,3.107,0,0,0,9.317,6.211,3.107,3.107,0,0,0,6.211,9.317a3.107,3.107,0,0,0,3.106,3.106,3.107,3.107,0,0,0,3.106-3.106Zm1.674,0a4.763,4.763,0,0,1-4.78,4.78,4.763,4.763,0,0,1-4.78-4.78,4.763,4.763,0,0,1,4.78-4.78,4.763,4.763,0,0,1,4.78,4.78Zm1.31-4.974a1.116,1.116,0,1,1-1.9-.788,1.116,1.116,0,0,1,1.9.788ZM9.317,1.674l-.928-.006q-.843-.006-1.28,0T5.938,1.7a9.567,9.567,0,0,0-1.249.121,4.821,4.821,0,0,0-.867.225A3.173,3.173,0,0,0,2.05,3.821a4.868,4.868,0,0,0-.225.868A9.567,9.567,0,0,0,1.7,5.938q-.03.734-.036,1.171t0,1.28q.006.843.006.928t-.006.928q-.006.843,0,1.28T1.7,12.7a9.567,9.567,0,0,0,.121,1.249,4.839,4.839,0,0,0,.225.866,3.173,3.173,0,0,0,1.771,1.771,4.868,4.868,0,0,0,.868.225,9.568,9.568,0,0,0,1.249.121q.734.03,1.171.036t1.28,0l.928-.006.928.006q.843.006,1.28,0t1.171-.036a9.566,9.566,0,0,0,1.249-.121,4.869,4.869,0,0,0,.868-.225,3.173,3.173,0,0,0,1.771-1.771,4.868,4.868,0,0,0,.225-.868A9.567,9.567,0,0,0,16.93,12.7q.03-.734.036-1.171t0-1.28q-.006-.843-.006-.928t.006-.928q.006-.843,0-1.28T16.93,5.937a9.566,9.566,0,0,0-.121-1.249,4.775,4.775,0,0,0-.226-.866A3.173,3.173,0,0,0,14.812,2.05a4.868,4.868,0,0,0-.868-.225A9.567,9.567,0,0,0,12.7,1.7q-.734-.03-1.171-.036t-1.28,0l-.928.006Zm9.317,7.643q0,2.778-.061,3.846a5.69,5.69,0,0,1-1.5,3.906,5.69,5.69,0,0,1-3.906,1.5q-1.068.061-3.846.061t-3.846-.061a5.69,5.69,0,0,1-3.906-1.5,5.69,5.69,0,0,1-1.5-3.906Q0,12.095,0,9.317T.061,5.471a5.69,5.69,0,0,1,1.5-3.906A5.69,5.69,0,0,1,5.471.061Q6.539,0,9.317,0t3.846.061a5.69,5.69,0,0,1,3.906,1.5,5.69,5.69,0,0,1,1.5,3.906Q18.634,6.539,18.634,9.317Z" transform="translate(11.905 11.905)" fill="#0d1936"/>
</svg>
