<?xml version="1.0" encoding="utf-8"?>
<!-- Generator: Adobe Illustrator 26.2.1, SVG Export Plug-In . SVG Version: 6.00 Build 0)  -->
<svg version="1.1" id="Layer_1" xmlns="http://www.w3.org/2000/svg" xmlns:xlink="http://www.w3.org/1999/xlink" x="0px" y="0px"
	 viewBox="0 0 478.9 202.8" style="enable-background:new 0 0 478.9 202.8;" xml:space="preserve">
<style type="text/css">
	.st0{clip-path:url(#SVGID_00000079453445101852209840000012346833289807395751_);}
	.st1{fill-rule:evenodd;clip-rule:evenodd;fill:#F1B31C;}
	.st2{fill-rule:evenodd;clip-rule:evenodd;fill:#273777;}
	.st3{fill:#3F3F41;}
	.st4{fill:#F1B31C;}
</style>
<g>
	<defs>
		<rect id="SVGID_1_" x="39.1" y="16.4" width="400.2" height="176.3"/>
	</defs>
	<clipPath id="SVGID_00000175320848739878706460000014348839672984917172_">
		<use xlink:href="#SVGID_1_"  style="overflow:visible;"/>
	</clipPath>
	<g id="Group_8549" style="clip-path:url(#SVGID_00000175320848739878706460000014348839672984917172_);">
		<path id="Path_7430" class="st1" d="M219.6,80.3c-2.5,3.2-8.1,2.7-10.6-0.4C212,77.1,217.1,77.1,219.6,80.3 M270.4,25.9
			c4.2-0.5,7-4.5,5.3-8.2c-3.4,0.3-5.9,3.4-5.6,6.8C270.1,25,270.2,25.5,270.4,25.9 M277.8,48.3c1.3-3.2-0.8-6.3-4.2-7.1
			C272.3,44.4,274.4,47.6,277.8,48.3 M296.1,59c1.1-2.6-0.1-5.6-2.7-6.8c-0.4-0.2-0.7-0.3-1.1-0.3c-1.1,2.6,0.1,5.6,2.6,6.8
			C295.3,58.8,295.7,58.9,296.1,59 M287.6,61.8c0-3.6-3.4-6-7.2-5.1C280.4,59.8,283.8,62.5,287.6,61.8 M311.8,47.6
			c4.2-1.2,6.3-5.6,4.2-9.1C311.8,39.7,309.6,44,311.8,47.6 M298.2,76.7c-3.4,1.6-3.8,5.9-1.3,8.7c2.7-1.6,3.6-5.1,2-7.8
			C298.7,77.3,298.4,77,298.2,76.7 M289.7,64.5c0.4,3.9,4.7,6.7,9,5.5c-0.7-3.8-4.3-6.4-8.1-5.7C290.3,64.4,290,64.4,289.7,64.5
			 M302.4,76.7c3.4,1.2,7.2-1.1,7.2-4.3C306.7,71.2,302.9,73.6,302.4,76.7 M279.9,28.2c2.6-2,3.1-5.8,1.1-8.5
			c-0.4-0.5-0.9-1-1.5-1.4c-2.6,2-3.1,5.8-1.1,8.5C278.8,27.4,279.4,27.8,279.9,28.2 M265.7,50.4c3.7-0.5,6.3-4,5.8-7.7
			c0-0.3-0.1-0.7-0.2-1c-3.7,0.5-6.3,4-5.8,7.7C265.6,49.8,265.6,50.1,265.7,50.4 M288.8,58.6c1.4-3.4-0.1-7.3-3.5-8.7
			c-0.4-0.2-0.7-0.3-1.1-0.4C282,53.5,284.6,57.4,288.8,58.6 M285.4,30.9c2.8-2,3.5-6,1.4-8.8c-0.3-0.4-0.6-0.8-1-1.1
			c-2.8,2-3.5,5.9-1.4,8.7C284.7,30.2,285,30.6,285.4,30.9 M272.4,36.5c4.2-0.5,6.9-4.5,5.2-8.2c-3.4,0.4-5.9,3.5-5.5,6.9
			C272.2,35.6,272.3,36.1,272.4,36.5 M291.4,35.3c3.8,1.2,8.5-0.8,9.3-4.7c-3.5-1.5-7.5,0.1-8.9,3.6
			C291.6,34.5,291.5,34.9,291.4,35.3 M301.1,40.4c3.8,1.2,8.5-1.2,9.4-4.7c-3.5-1.5-7.5,0.1-9,3.6C301.4,39.7,301.2,40.1,301.1,40.4
			 M294.3,43.2c4.3-0.4,7.2-4.7,5.6-8.3c-3.6,0.3-6.1,3.5-5.8,7.1C294.1,42.4,294.2,42.8,294.3,43.2 M323.2,71.6
			c3,2.8,7.7,2.7,10.5-0.3c0,0,0.1-0.1,0.1-0.1c-2.7-2.8-7.2-2.9-10-0.2C323.6,71.2,323.4,71.4,323.2,71.6 M317.3,55.4
			c3.6,1.4,7.7-0.4,9.2-4c0.1-0.2,0.2-0.5,0.2-0.7c-3.5-1.5-7.5,0.1-9,3.6C317.5,54.7,317.4,55.1,317.3,55.4 M319,59.4
			c2.5,3,6.9,3.4,10,0.9c0.2-0.2,0.4-0.4,0.6-0.6c-2.5-3-7-3.4-10-0.9C319.4,59,319.2,59.2,319,59.4 M311.4,54.7
			c3.6,0.7,7.2-1.6,7.9-5.2c0.1-0.4,0.1-0.7,0.1-1.1c-3.6-0.7-7.2,1.6-7.9,5.2C311.4,53.9,311.4,54.3,311.4,54.7 M314.3,69.2
			c2.7,2.8,7.2,2.9,10,0.2c0.2-0.2,0.4-0.4,0.6-0.6C321.9,66,317.2,66.2,314.3,69.2C314.4,69.2,314.4,69.2,314.3,69.2 M315.6,61.4
			c0.4,3.9,5.1,6.3,9.3,4.7c-1-3.7-4.7-6-8.5-5C316.2,61.1,315.9,61.2,315.6,61.4 M309.6,59c2.8,2.5,7.1,2.2,9.6-0.6
			c0.2-0.3,0.5-0.6,0.7-0.9c-2.9-2.5-7.2-2.1-9.6,0.7C310,58.4,309.8,58.7,309.6,59 M309.2,70c4.2-1.2,6.4-5.5,4.2-9.1
			C309.2,62.1,307.1,66.5,309.2,70 M290.1,51.5c1.5-3.2,0.2-7-3-8.5c-0.5-0.3-1.1-0.4-1.7-0.5C283.3,45.9,285.9,50.3,290.1,51.5
			 M285.4,41.2c3.8,1.6,8.5-0.8,8.9-4.7C290.5,35.3,285.9,37.3,285.4,41.2 M281.2,44.8c2-2.8,1.4-6.6-1.3-8.6
			c-0.5-0.4-1.1-0.7-1.6-0.9c-2,2.7-1.5,6.5,1.1,8.5C279.9,44.3,280.5,44.6,281.2,44.8 M283.3,38.5c2.3-2.3,2.3-6,0-8.3
			c-0.5-0.5-1.1-0.9-1.8-1.2c-2.3,2.5-2.1,6.3,0.4,8.6C282.4,37.9,282.9,38.2,283.3,38.5 M285.8,36.9c3.5-0.3,6.1-3.4,5.8-6.9
			c0-0.5-0.1-0.9-0.3-1.3c-3.4,0.2-6.1,3.2-5.9,6.6C285.6,35.8,285.7,36.3,285.8,36.9 M295.2,62.1c1.8,3.4,6,4.7,9.4,2.9
			c0.1-0.1,0.2-0.1,0.3-0.2c-1.3-3.3-5.1-4.9-8.4-3.5C296.1,61.6,295.6,61.8,295.2,62.1 M299.9,57c2.1,3.2,7.2,3.6,10.2,0.8
			c-1.9-3-5.9-3.8-8.9-1.9C300.7,56.2,300.3,56.6,299.9,57 M303.3,53.5c4.2,1.2,8.5-0.8,9.3-4.7c-3.6-1.4-7.6,0.3-9,3.9
			C303.5,52.9,303.4,53.2,303.3,53.5 M299.5,54.7c1-3.5-1.1-7.1-4.6-8.1c-0.4-0.1-0.9-0.2-1.4-0.2c-1,3.5,1.1,7.1,4.6,8.1
			C298.5,54.6,299,54.6,299.5,54.7 M301.6,50.7c2.4-2.4,2.4-6.3,0-8.6c-0.5-0.5-1.1-0.9-1.7-1.2C296.9,43.6,297.7,48.3,301.6,50.7
			 M304.1,48.7c3.5-0.3,6.1-3.4,5.8-7c0-0.5-0.1-0.9-0.3-1.3C305.4,40.9,302.4,45.2,304.1,48.7 M303.7,79.5c-3.8,2-4.7,6.7-1.7,9.4
			C305.8,87,306.7,82.3,303.7,79.5 M307.5,81.1c-1.7,3.9,0.8,7.9,5.1,8.7C314.3,86.2,311.8,81.8,307.5,81.1 M313.5,82.2
			c1,3.8,4.9,6,8.6,5c0.3-0.1,0.5-0.2,0.8-0.3c-0.9-3.7-4.6-6-8.3-5.1C314.1,82,313.8,82.1,313.5,82.2 M310,79.9
			c4.3-1.2,6.4-5.5,4.3-9.1c-3.5,0.8-5.6,4.3-4.8,7.8C309.7,79,309.8,79.5,310,79.9 M315.2,79.5c4.2,0.4,8.1-2.8,7.6-6.8
			c-3.4-0.8-6.8,1.4-7.5,4.8C315.2,78.2,315.1,78.8,315.2,79.5 M318.1,80.3c2.6,3.2,8.1,2.7,10.6-0.4
			C325.8,77.1,320.7,77.1,318.1,80.3 M260,48.3c-1.3-3.2,0.8-6.3,4.2-7.1C265.5,44.4,263.3,47.5,260,48.3 M241.7,59
			c-1.1-2.6,0.1-5.6,2.7-6.8c0.4-0.2,0.7-0.3,1.1-0.3c1.1,2.6-0.1,5.6-2.6,6.8C242.5,58.8,242.1,58.9,241.7,59 M250.2,61.8
			c0-3.6,3.4-6,7.2-5.1C257.4,59.8,254,62.5,250.2,61.8 M226,47.6c-4.2-1.2-6.4-5.6-4.2-9.1C226,39.7,228.1,44,226,47.6 M239.6,76.7
			c3.4,1.6,3.8,5.9,1.3,8.7c-2.7-1.6-3.6-5.1-2-7.8C239.1,77.3,239.3,77,239.6,76.7 M248.1,64.5c-0.6,3.8-4.3,6.4-8.1,5.7
			c-0.3-0.1-0.6-0.1-0.9-0.2C239.6,66.1,243.8,63.3,248.1,64.5 M235.3,76.7c-3.4,1.2-7.2-1.1-7.2-4.3c3-0.9,6.1,0.7,7.1,3.7
			C235.2,76.3,235.3,76.5,235.3,76.7 M257.8,28.2c-2.6-2-3.1-5.8-1.1-8.5c0.4-0.5,0.9-1,1.5-1.4c2.6,2,3.1,5.8,1.1,8.5
			C258.9,27.4,258.4,27.8,257.8,28.2 M268.9,25c-3.7-0.5-6.3-3.9-5.8-7.6c0-0.4,0.1-0.7,0.2-1.1c3.7,0.5,6.3,3.9,5.8,7.6
			C269.1,24.3,269,24.7,268.9,25 M248.9,58.6c-1.7-3.6,0.4-7.9,4.7-9.1C255.7,53.5,253.2,57.4,248.9,58.6 M271,39.2
			c-3.6,1.4-7.6-0.3-9-3.9c-0.1-0.3-0.2-0.6-0.3-0.9c3.5-1.5,7.5,0.1,8.9,3.6C270.8,38.5,270.9,38.9,271,39.2 M270.1,32.9
			c-4.2-0.8-6.8-4.7-5.1-8.7C269.3,25,271.9,29,270.1,32.9 M252.3,30.9c-2.8-2-3.4-6-1.4-8.8c0.3-0.4,0.6-0.8,1-1.1
			c2.8,2.1,3.4,6.1,1.3,8.9C253,30.3,252.7,30.6,252.3,30.9 M260.4,34.9c-2.4-2.1-2.6-5.7-0.6-8c0.5-0.6,1.1-1.1,1.8-1.4
			c2.3,2.3,2.4,6,0.1,8.4C261.4,34.2,260.9,34.6,260.4,34.9 M246.4,35.3c-3.8,1.2-8.5-0.8-9.3-4.7c3.5-1.5,7.5,0.1,8.9,3.6
			C246.1,34.5,246.3,34.9,246.4,35.3 M236.6,40.4c-3.8,1.2-8.5-1.2-9.4-4.7c3.5-1.5,7.5,0.2,9,3.7C236.4,39.7,236.5,40.1,236.6,40.4
			 M243.4,43.2c-4.2-0.4-7.2-4.7-5.5-8.3c3.5,0.3,6.1,3.4,5.8,7C243.6,42.3,243.5,42.8,243.4,43.2 M214.5,71.6
			c-3,2.8-7.8,2.7-10.6-0.4c0,0,0,0,0,0c2.7-2.8,7.3-2.9,10.1-0.2C214.2,71.2,214.4,71.4,214.5,71.6 M220.5,55.4
			c-3.6,1.4-7.7-0.4-9.1-4c-0.1-0.2-0.2-0.5-0.2-0.7c3.5-1.5,7.5,0.2,9,3.7C220.3,54.7,220.4,55.1,220.5,55.4 M218.8,59.4
			c-2.5,3-7,3.4-10.1,0.9c-0.2-0.2-0.4-0.4-0.6-0.5c2.6-3,7.1-3.4,10.1-0.8C218.4,59.1,218.6,59.2,218.8,59.4 M226.4,54.7
			c-3.6,0.7-7.2-1.6-7.9-5.2c-0.1-0.4-0.1-0.7-0.1-1.1c3.6-0.7,7.2,1.6,7.9,5.2C226.4,53.9,226.4,54.3,226.4,54.7 M223.4,69.2
			c-2.7,2.8-7.2,2.9-10,0.2c-0.2-0.2-0.4-0.4-0.6-0.6C215.9,66,220.6,66.2,223.4,69.2C223.4,69.2,223.4,69.2,223.4,69.2 M222.2,61.4
			c-0.4,3.9-5.1,6.3-9.3,4.7c1-3.7,4.7-6,8.5-5C221.6,61.1,221.9,61.2,222.2,61.4 M228.1,59c-2.8,2.4-7,2.2-9.5-0.6
			c-0.3-0.3-0.5-0.6-0.7-0.9c2.8-2.4,7.1-2.1,9.5,0.7C227.7,58.4,227.9,58.7,228.1,59 M228.6,70c-4.3-1.2-6.4-5.5-4.3-9.1
			C228.6,62.1,230.7,66.5,228.6,70 M247.6,51.5c-1.5-3.2-0.1-7.1,3.1-8.6c0.5-0.2,1-0.4,1.6-0.5C254.4,45.9,251.9,50.3,247.6,51.5
			 M252.3,41.2c-3.8,1.6-8.5-0.8-9-4.7C247.2,35.3,251.9,37.3,252.3,41.2 M256.6,44.8c-2-2.7-1.5-6.6,1.3-8.6
			c0.5-0.4,1.1-0.7,1.6-0.9c2.1,2.6,1.6,6.4-1,8.5C258,44.2,257.3,44.6,256.6,44.8 M254.4,38.5c-3-2.7-2.1-7.5,1.7-9.5
			c2.3,2.5,2.1,6.3-0.4,8.6C255.4,37.9,254.9,38.2,254.4,38.5 M251.9,36.9c-3.5-0.3-6.1-3.3-5.8-6.8c0-0.5,0.1-0.9,0.3-1.4
			c3.4,0.2,6.1,3.2,5.9,6.6C252.2,35.8,252.1,36.3,251.9,36.9 M242.5,62.1c-1.8,3.4-6,4.7-9.4,2.9c-0.1-0.1-0.2-0.1-0.3-0.2
			c1.3-3.3,5.1-4.9,8.4-3.5C241.7,61.6,242.1,61.8,242.5,62.1 M237.9,57c-2.2,3.2-7.2,3.6-10.2,0.8c2-3,6-3.8,9-1.8
			C237.1,56.2,237.5,56.6,237.9,57 M234.5,53.5c-4.2,1.2-8.5-0.8-9.3-4.7c3.6-1.4,7.6,0.3,9,3.9C234.3,52.9,234.4,53.2,234.5,53.5
			 M238.3,54.7c-1-3.5,1-7.1,4.5-8.1c0.5-0.1,1-0.2,1.5-0.2c1,3.5-1.1,7.1-4.6,8.1C239.2,54.6,238.8,54.6,238.3,54.7 M236.2,50.7
			c-2.4-2.4-2.4-6.3,0-8.6c0.5-0.5,1.1-0.9,1.7-1.2C240.9,43.6,240,48.3,236.2,50.7 M233.6,48.7c-3.6-0.3-6.1-3.5-5.8-7.1
			c0-0.4,0.1-0.8,0.2-1.2C232.4,40.9,235.3,45.2,233.6,48.7 M234.1,79.5c3.8,2,4.7,6.7,1.7,9.4C231.9,87,231.1,82.3,234.1,79.5
			 M230.2,81.1c1.7,3.9-0.8,7.9-5.1,8.7C223.4,86.2,226,81.8,230.2,81.1 M224.3,82.3c-1,3.7-4.7,6-8.5,5c-0.3-0.1-0.6-0.2-0.9-0.3
			c0.9-3.7,4.5-5.9,8.2-5.1C223.5,82,223.9,82.1,224.3,82.3 M227.7,79.9c-4.2-1.2-6.3-5.5-4.2-9.1c3.4,0.8,5.6,4.3,4.7,7.8
			C228,79,227.9,79.4,227.7,79.9 M222.6,79.5c-4.2,0.4-8.1-2.8-7.6-6.8c3.4-0.8,6.8,1.4,7.5,4.8C222.6,78.2,222.7,78.8,222.6,79.5"
			/>
		<path id="Path_7431" class="st2" d="M316.3,117.3h3.6v42.1l8.8,3.6v-19.5c0-2.1,1-4.5,3.2-7.5c1.7-2.3,3.6-4.4,5.9-6.2
			c2.4-2.1,5.4-3.4,8.5-3.6c3.8,0,5.7,1.3,5.7,3.7c0.1,2.4-1.1,4.6-3,5.9c-2.1,1.3-4.5,2-7,1.9c-1.9,0-3.8-0.2-5.6-0.7l-3.3,6.3
			l17.9,19.7l6.4-4.2l-11.6-13.1c2-0.1,3.9-0.5,5.7-1.3c5.3-1.9,8-5,8-9.3c0-3.2-1.6-5.8-4.7-7.8c-2.9-1.8-6.2-2.7-9.6-2.7
			c-2.2-0.1-4.5,0.2-6.7,0.7c-4.5,1.7-7.7,3.1-9.7,4.1v-12h37v26.8c0,3.2,1,6.4,2.9,9c3.9,5.9,10.5,9.3,17.5,9
			c2.1,0.1,4.1-0.2,6.1-0.7c3.6-1.1,7.1-2.8,10.2-5v3.7l5.7,2.3c1.5,0.6,3,1.3,4.5,2V125h-10.2v18.5c-0.1,3.5-1.4,6.8-3.5,9.6
			c-2.9,4.4-7.9,6.9-13.1,6.6c-4.2,0-7.3-2.2-9.1-6.5c-0.9-1.9-1.3-4-1.3-6.2v-29.7h48.2v42.1c1.6,0.6,3.2,1.4,4.7,2.2l2.6,1.3
			c0.4,0.2,0.9,0.4,1.3,0.5v-46h7.2v-5.6H307.4c-0.8-0.6-1.7-1.1-2.7-1.4h0.2l0.5-1.3l-0.2-2v-1h-0.2c-0.2-1-0.1-2.1,0.2-3.1
			c0.3-0.9-0.1-1.9-0.8-2.4c-0.2-0.9-0.1-1.8,0.5-2.5c0.1-0.1,0.1-0.2,0.1-0.2c0.1,0,0.3,0.1,0.4-0.1s0-0.4,0-0.5
			c0-0.1-0.1-0.1-0.1-0.2c-0.2-1.1-1.3-1.9-2.4-1.7c-0.1,0-0.2,0-0.3,0.1c-0.8,0.3-1.3,1-1.2,1.8v0.9l0.2,0.1
			c-0.1,0.2-0.3,0.4-0.4,0.6c-0.1,0.1,0.1,0.2,0.1,0.2h0.2l0.1,0.4c0,0.2,0,0.4,0.1,0.5c0.1,0.2,0.5,0,0.7,0.2
			c0.2,0.2,0.3,0.4,0.4,0.7c-0.5,0.7-0.8,1.5-0.9,2.3v3.3c0,0-4.2,0.5-4.3,1.7c0,0.1,0,0.3-0.1,0.4l-1.4-0.2l0.1-1.1l0.1-0.2
			l-0.2-0.2c-0.1-1.5-0.5-2.8-0.7-4.5c0.1-0.8-0.3-1.6-1-2.1c-0.2-0.1-0.2,0-0.2,0c-0.3-0.3-0.3-0.8,0-1.1l0.4-0.7h0.5v-1
			c0.3-0.7,0.2-2.1-0.6-2.4c-0.9-0.6-2.1-0.5-2.9,0.2c-0.4,0.4-0.5,1-0.5,1.6c0,0.4-0.1,0.8-0.4,1.1c0,0.1,0.2,0.2,0.2,0.2
			c0,0.3,0.1,0.6,0.2,0.9c0.1,0.2,1,0.4,1,0.4c0.3,0.4,0.5,0.8,0.7,1.3c0,0.4-1.1,2.3-0.8,3.5c0.2,1.2,0.4,2,0.4,2l-0.4,0.3
			c-0.9,0.2-1.7,0.2-2.6,0.2c-0.6-0.1-1.1,0-1.7,0.1c0,0-0.4,0.4-0.8,0.6c-0.2,0.2-0.4,0.4-0.5,0.7H286c0.4-0.7,0.8-1.1-0.1-2
			c-1.1-1.1-2.7-0.5-3.8-2c-0.5-0.7-0.7-1.5-0.7-2.4c0.1-2.6,0.4-3.2-0.7-5.3c-0.3-0.6-0.7-1.2-1.2-1.8c-0.5-0.7-0.4-1.3,0.2-2.1
			c1.3,0.1,1.9,0.7,2.4-0.7c0.3-1,0.5-1.9,0.7-2.9c0.4-2.7-0.4-3.7-2.6-4.2c0.3-0.2,0.5-0.6,0.5-1c-0.1-0.4-0.2-0.7-0.5-1
			c-0.7-0.3-1.5-0.4-2.3-0.1c-0.8,0.2-2.3,1-1.7,2.1c0.2,0.5,0.4,0.4,0.7,0.6c-0.5,0.7-0.8,1.4-0.9,2.2c0.1,1.3,0.4,2.6,0.8,3.9
			c-0.4,1-1,2-1.7,2.8c-1.2,1.4-1.6,2.3-1.2,4.8c0.2,1.5,0.9,4,0,5.3l-0.1-0.2c-0.5-0.9-0.9-1.9-1-3c-0.1-0.4-0.2-0.9-0.2-1.3
			c0.1-4.8,0.2-9.3,0.3-10.3c0.4-4.5,4-12.3,8.1-14.5c1.6-0.7,2.6,0.1,8.4-1.2c0.4-0.4,1.3,0,1.7,0c1.6,0.1,3.2,0.3,4.7,0.8
			c7.2,2.7,11.5,7.5,20.8,5.9c0.4-0.4,0-0.8-0.4-0.8c-9.8,2.3-16.1-5.6-24.2-7.1c2.6-1.1,5.3-2,8.1-2.7c4.2,1.2,8.5,1.5,12.7-0.4
			v-0.4c-3.7,1.3-7.8,1.3-11.5,0c3.3-2.2,5.6-5.6,6.4-9.5c0-0.4,0-0.4-0.4,0c-3.4,10.6-14.5,11.8-24.7,12.6c1.7-3.1,3.8-5.9,5.6-9.1
			c5.9-0.8,11-5.9,12.7-11.8h-0.4c-2.6,6.8-6.8,9.9-11.9,10.7c1.9-6,2.8-12.3,2.5-18.6c-0.4-0.8-0.4-0.8-0.8-0.4
			c0.4,5-1.6,15.5-7,22.9c-0.9,1.3-1.7,2.5-2.6,3.7c-0.2,0.3-1,1-1.1,0.2c0-1.2,0.1-2.4,0.3-3.6c0.1-0.4,0.5-2.2-0.2-2.2
			c-0.4,0.1-0.7,1.3-0.8,1.6c-0.3,0.8-0.5,1.7-0.7,2.5c-0.3,1.2-0.6,2.3-0.8,3.5c-0.1,0.8-0.3,1.6-0.5,2.3c-0.1,0.9-0.4,1.8-1,2.6
			l-0.1,0.2c-0.4,0.6-2.8,4.3-3.6,4.4c-1.7-2.6,0.5-6.4-0.1-9.4c-0.1-0.4,0.1-0.8,0.5-1c0.7-0.6,1.5-1,2.2-1.6
			c1.7-1.4,2.8-3.5,2.9-5.7c0.1-0.2,0.1-0.5,0.2-0.8c0.1-0.7-0.5-0.7-0.8,0c-0.3,0.7-0.4,1.6-0.8,2.4c-0.3,0.9-0.9,1.7-1.7,2.3
			c-0.9,0.7-2.1,0.9-3.2,0.5c-0.6-0.3-0.7-0.8-1-1.3c-1-1.8-1.5-3.8-1.4-5.8c0.8-8.7,8.9-7.1,13.1-15.4c2.2-4.3,1.3-7,1.3-7
			c-2.9,9.4-5.9,10.6-14.4,14.9c-0.4-0.5-0.8-1-1.2-1.5c-0.4,0.5-0.8,1-1.2,1.5c-8.5-4.3-11.5-5.5-14.4-14.9c0,0-0.9,2.7,1.3,7
			c4.2,8.3,12.3,6.8,13.1,15.4c0.1,2-0.3,4.1-1.4,5.8c-0.2,0.5-0.4,1-1,1.3c-1.1,0.4-2.3,0.2-3.2-0.5c-0.8-0.6-1.4-1.3-1.7-2.3
			c-0.4-0.8-0.5-1.7-0.8-2.4c-0.3-0.7-1-0.7-0.8,0c0,0.3,0,0.5,0.1,0.8c0.1,2.2,1.2,4.3,2.9,5.7c0.7,0.6,1.5,1,2.2,1.6
			c0.3,0.2,0.5,0.6,0.5,1c0.1,2.8,1.4,5.9-0.1,9.4c-0.8-0.1-3.2-3.8-3.6-4.4l-0.1-0.2c-0.5-0.8-0.9-1.7-1-2.6
			c-0.2-0.8-0.4-1.5-0.5-2.3c-0.2-1.2-0.5-2.4-0.8-3.5c-0.2-0.9-0.4-1.7-0.7-2.5c-0.1-0.4-0.4-1.6-0.8-1.6c-0.7-0.1-0.2,1.8-0.2,2.2
			c0.2,1.2,0.3,2.4,0.3,3.6c-0.1,0.8-0.8,0.1-1.1-0.2c-0.9-1.2-1.7-2.4-2.6-3.7c-5.4-7.5-7.3-17.9-7-22.9c-0.4-0.4-0.4-0.4-0.8,0.4
			c-0.2,6.3,0.6,12.6,2.5,18.6c-5.1-0.8-9.3-3.9-11.9-10.7h-0.4c1.7,5.9,6.8,11.1,12.7,11.8c1.7,3.2,3.8,6,5.6,9.1
			c-10.2-0.8-21.3-2-24.6-12.6c-0.4-0.4-0.4-0.4-0.4,0c0.8,3.9,3.1,7.3,6.3,9.5c-3.7,1.3-7.8,1.3-11.5,0v0.4c4.2,2,8.5,1.6,12.7,0.4
			c2.8,0.7,5.5,1.6,8.1,2.7c-8.1,1.5-14.5,9.4-24.3,7.1c-0.4,0-0.8,0.4-0.4,0.8c9.4,1.5,13.6-3.2,20.8-5.9c1.5-0.5,3.1-0.7,4.7-0.8
			c0.4,0,1.3-0.4,1.7,0c5.8,1.3,6.7,0.5,8.3,1.2c4.1,2.2,9.3,10,9.7,14.5c0.2,1.9,0.5,17.6,0.4,22.2H101.4v5.6h27.3v5.2
			c-0.1,0.4-0.3,0.7-0.7,0.8c-12.6,0-18.9,3.5-18.9,10.6c0,2.1,0.8,4.2,2.1,5.8l2.4,3.2l-0.1,0.5c-2,0.2-3.9,0.9-5.4,2.1
			c-2,1.4-3,2.9-3,4.5c0,2.9,2.6,6.2,7.8,9.6c1.9,1.4,4.1,2.2,6.5,2.4c2.4,0,6.4-1.1,11.9-3.4c5.6-2.2,9.5-3.4,11.9-3.4
			c2.4-0.1,4.7,0.8,6.3,2.5c1.6,1.6,2.5,3.8,2.4,6.1c0,1.6-0.7,3.1-1.7,4.3c-2.5,3.3-6.4,5.2-10.5,5.1c-1.8,0-4.4-1.1-7.7-3.2
			c-2.5-1.7-5.2-3.2-7.9-4.5c-2.9-1.2-6-1.7-9.1-1.7c-4.8-0.1-9.5,1.3-13.6,3.9c-3.4,2.2-6.3,5.1-8.5,8.5c-2.3,3.2-3.6,7.1-3.6,11.1
			c0,0.8,0,1.6,0.2,2.4c2-3.9,4.8-7.4,8.2-10.2c7.2-6,15-9,23.2-9c3.8,0,8.5,1.3,14.2,3.9c5.1,2.4,9,3.5,11.6,3.5c6,0,9-2.9,9-8.6
			c-0.1-2.5-0.5-4.9-1.1-7.3c-0.7-3.3-2.2-6.4-4.3-9.1c-2.1-2.8-5.5-4.5-9-4.4c-3.9,0.1-9.1,1.6-15.5,4.4c-5.4,2.4-9.1,3.6-11,3.6
			c-1.1,0-2.1-0.4-3-1c-0.9-0.5-1.4-1.4-1.5-2.4c0.1-1,0.6-2,1.4-2.6c2.4-2.7,7-4.1,13.7-4.1c5.3,0,9.1-0.5,11.6-1.5
			c3.5-1.3,5.8-4.7,5.5-8.5c0-0.9-0.1-1.8-0.4-2.7c-0.2-0.5-0.5-1-0.8-1.4c-0.4-0.5-0.6-1.1-0.7-1.7c0-0.4,0.3-0.8,1-1.2
			c0.5-0.4,1.1-0.6,1.7-0.6c1.4,0.1,2.5,1,3,2.3c0.6,1.2,0.9,2.5,1,3.9l5.3-5.6c-0.3-1.1-0.9-2.2-1.7-3c-1.9-2.2-3.9-3.4-6-3.4
			c-1,0-1.9,0.4-2.7,1l-2,2.1c-0.8,1-1.6,1.4-2.1,1.4c-0.9-0.3-1.3-1.2-1.3-2.7v-7.8h21.6v26.8c0,3.2,1,6.4,2.9,9
			c3.9,5.8,10.5,9.3,17.5,9c2.1,0.1,4.1-0.2,6.1-0.7c3.7-1.1,7.1-2.8,10.2-5v3.7l5.7,2.3c1.5,0.6,3,1.3,4.5,2V125h-10.2v18.5
			c-0.2,3.5-1.4,6.8-3.5,9.6c-2.9,4.4-7.9,6.9-13.1,6.6c-4.2,0-7.3-2.2-9.1-6.5c-0.9-1.9-1.3-4-1.4-6.2v-29.7h95.7v26.8
			c0,3.2,1,6.4,2.9,9c3.9,5.8,10.5,9.3,17.5,9c2.1,0.1,4.1-0.2,6.1-0.7c3.6-1.1,7.1-2.8,10.2-5v3.7l5.7,2.3c1.5,0.6,3,1.3,4.5,2V125
			h-10.2v18.5c-0.1,3.5-1.4,6.8-3.5,9.6c-2.9,4.4-7.3,6.6-13,6.6c-4.3,0-7.3-2.2-9.1-6.5c-0.9-1.9-1.4-4-1.4-6.2v-29.7H316.3
			L316.3,117.3z M255.6,134c0,1.8-1.2,3.9-3.6,6.2c-1.8,1.8-4,3.3-6.3,4.4l-7.5-7.9c2.3-0.2,4.6-1,6.5-2.3c2.3-1.6,3.5-3.3,3.5-5.3
			c0-1.1-0.8-2-2.2-2.7c-1.1-0.7-2.4-1-3.8-1c-3.1,0.2-6,1.4-8.3,3.4c-6,4.7-9,9.8-9,15.4v19.7l-9.6-4.7v-34.3h9.6v3.5
			c1.4-1.3,4.4-2.7,9-4.2c2.2-0.7,4.5-1.1,6.9-1.1c4.7-0.1,9.2,1.8,12.4,5.1C254.7,129.8,255.6,131.9,255.6,134 M136.2,132.4
			c0-3.8-2.1-5.6-6.5-5.6c-3.6,0-7,1.2-9.9,3.4c-3.4,2.4-5.1,5.2-5.1,8.3c0,1.7,0.8,3.3,2.1,4.4c1.4,1.2,3.1,1.8,4.9,1.9
			c2.3-0.1,4.5-0.8,6.5-1.9c2-1,3.8-2.4,5.3-4C135.3,137.1,136.2,134.8,136.2,132.4"/>
		<path id="Path_7432" class="st3" d="M270.1,189.2h1.9v-12.1h-1.9V189.2z M281,180c-1.3-0.1-2.7,0.4-3.6,1.4V180h-1.7v9.1h1.8v-4.7
			c-0.1-1.6,1.1-2.9,2.6-3.1c0.2,0,0.3,0,0.5,0c1.3-0.2,2.5,0.8,2.7,2.1c0,0.2,0,0.4,0,0.6v5.1h1.8v-5.3c0.2-2-1.4-3.8-3.4-4
			C281.4,179.9,281.2,180,281,180 M291.2,189.3c2.6,0,4.2-1.1,4.2-2.7c0-3.5-6.3-1.8-6.3-3.9c0-0.7,0.8-1.3,2.3-1.3
			c1,0,2,0.2,2.9,0.7l0.8-1.3c-1.1-0.5-2.3-0.8-3.6-0.8c-2.6,0-4.1,1.1-4.1,2.7c0,3.6,6.2,1.9,6.2,3.9c0,0.8-0.7,1.3-2.3,1.3
			c-1.2,0-2.4-0.3-3.5-1l-0.8,1.3C288.3,189,289.8,189.3,291.2,189.3 M303,180c-1.3-0.1-2.7,0.5-3.5,1.5V180h-1.7v12.5h1.8v-4.7
			c0.9,1,2.1,1.5,3.5,1.5c2.6,0.2,4.8-1.7,5-4.3c0.2-2.6-1.7-4.8-4.3-5C303.4,180,303.2,180,303,180 M302.8,187.8
			c-1.8-0.1-3.1-1.6-3-3.3c0.1-1.8,1.6-3.1,3.3-3c1.7,0.1,3.1,1.5,3,3.2c0,1.7-1.3,3.1-3,3.2C303,187.8,302.9,187.8,302.8,187.8
			 M311.4,178.3c0.6,0.1,1.2-0.4,1.3-1.1c0,0,0,0,0-0.1c0-0.6-0.5-1-1.3-1c-0.6-0.1-1.1,0.4-1.2,1c-0.1,0.6,0.4,1.1,1,1.2
			C311.2,178.3,311.3,178.3,311.4,178.3 M310.5,189.2h1.8V180h-1.8L310.5,189.2z M317.4,181.6v-1.5h-1.7v9.1h1.9v-4.5
			c-0.2-1.6,1-2.9,2.5-3.1c0.2,0,0.4,0,0.6,0h0.4V180C319.6,179.8,318.2,180.5,317.4,181.6 M331.9,184.7c0.1-2.5-1.9-4.6-4.4-4.7
			c-0.2,0-0.3,0-0.5,0c-2.6-0.2-4.8,1.8-5,4.3c0,0.1,0,0.2,0,0.3c0,2.7,2.2,4.7,5.4,4.7c1.4,0.1,2.9-0.5,3.9-1.5l-1-1.1
			c-0.8,0.7-1.8,1.1-2.8,1.1c-2,0-3.4-1-3.6-2.6h8C331.8,185,331.9,184.8,331.9,184.7 M327,181.4c1.6-0.1,3,1,3.2,2.6h-6.3
			C324,182.4,325.4,181.3,327,181.4 M341.9,176.4v5c-0.9-1-2.2-1.5-3.5-1.4c-2.6-0.2-4.8,1.7-5,4.3c-0.2,2.6,1.7,4.8,4.3,5
			c0.2,0,0.5,0,0.7,0c1.4,0,2.6-0.5,3.5-1.6v1.4h1.7v-12.8H341.9z M338.6,187.8c-1.8-0.1-3.1-1.6-3-3.3c0.1-1.8,1.6-3.1,3.3-3
			c1.7,0.1,3.1,1.5,3,3.2c0,1.7-1.3,3.1-3.1,3.2C338.8,187.8,338.7,187.8,338.6,187.8 M352.4,189.2h9v-1.5h-7.1v-10.6h-1.9
			L352.4,189.2z M371.9,184.7c0.1-2.5-1.9-4.6-4.4-4.7c-0.2,0-0.3,0-0.5,0c-2.6-0.2-4.8,1.8-4.9,4.3c0,0.1,0,0.2,0,0.3
			c0,2.7,2.1,4.7,5.3,4.7c1.4,0.1,2.9-0.5,3.9-1.5l-1-1.1c-0.8,0.7-1.8,1.1-2.9,1.1c-2,0-3.4-1-3.6-2.6h8
			C371.8,185,371.9,184.8,371.9,184.7 M367,181.4c1.6-0.1,3,1,3.2,2.6h-6.3C364,182.4,365.4,181.3,367,181.4 M377.5,180
			c-1.5,0-2.9,0.4-4.1,1.1l0.8,1.3c0.9-0.6,2-1,3.2-1c1.7,0,2.6,0.8,2.6,2.2v0.3h-2.9c-2.9,0-3.9,1.2-3.9,2.7c0,1.5,1.4,2.7,3.6,2.7
			c1.2,0.1,2.4-0.4,3.2-1.3v1.2h1.7v-5.5C381.7,181.2,380.2,180,377.5,180 M377.1,188c-1.4,0-2.2-0.5-2.2-1.4c0-0.8,0.5-1.4,2.3-1.4
			h2.7v1.3C379.4,187.5,378.3,188.1,377.1,188 M386.7,181.6v-1.5h-1.7v9.1h1.8v-4.5c-0.2-1.6,1-2.9,2.5-3.1c0.2,0,0.4,0,0.6,0h0.4
			V180C389,179.9,387.6,180.5,386.7,181.6 M397.7,180c-1.3-0.1-2.7,0.4-3.6,1.4v-1.4h-1.7v9.1h1.8v-4.7c-0.1-1.5,1-2.9,2.6-3.1
			c0.2,0,0.4,0,0.6,0c1.3-0.2,2.5,0.8,2.7,2.1c0,0.2,0,0.4,0,0.6v5.1h1.8V184c0.2-2-1.4-3.8-3.4-4C398.1,180,397.9,180,397.7,180
			 M406,178.3c0.6,0.1,1.2-0.4,1.3-1.1c0,0,0,0,0-0.1c0-0.6-0.5-1-1.3-1c-0.6-0.1-1.1,0.4-1.2,1c-0.1,0.6,0.4,1.1,1,1.2
			C405.8,178.3,405.9,178.3,406,178.3 M405.1,189.2h1.8v-9.1h-1.8V189.2z M415.6,180c-1.3-0.1-2.6,0.4-3.6,1.4V180h-1.7v9.1h1.8
			v-4.7c-0.1-1.5,1-2.9,2.6-3.1c0.2,0,0.4,0,0.6,0c1.3-0.2,2.5,0.8,2.7,2.1c0,0.2,0,0.4,0,0.6v5.1h1.8v-5.3
			C419.7,181.2,418,180,415.6,180 M430.9,180v1.4c-1-1-2.3-1.6-3.7-1.5c-2.8,0-5,1.7-5,4.4c0,2.7,2.2,4.5,5,4.5
			c1.3,0.1,2.7-0.5,3.6-1.4v0.7c0,2.1-1.1,3-3.4,3c-1.4,0-2.7-0.4-3.8-1.1l-0.8,1.3c1.4,1,3,1.4,4.7,1.4c3.4,0,5.1-1.5,5.1-4.7V180
			L430.9,180z M427.4,187.3c-1.6-0.2-2.8-1.7-2.5-3.4s1.7-2.8,3.4-2.5c1.5,0.2,2.6,1.5,2.6,2.9c0,1.7-1.4,3-3.1,3
			C427.6,187.3,427.5,187.3,427.4,187.3"/>
		<path id="Path_7433" class="st4" d="M84.1,136.7c-0.9-6.7-6.6-10.1-14.6-10.1c-7.5,0-13.7,3.4-15.8,10.1H84.1z M53.5,147.3
			c0.9,6.5,6.9,11.1,16.7,11.1c5.1,0,11.9-1.8,15.1-4.8l8.9,8.1c-5.9,5.7-15.7,8.4-24.2,8.4c-19.4,0-30.9-11-30.9-27.6
			c0-15.8,11.6-27.2,29.9-27.2c18.8,0,30.5,10.8,28.4,32.1H53.5z"/>
	</g>
</g>
</svg>
