<?xml version="1.0" encoding="utf-8"?>
<!-- Generator: Adobe Illustrator 23.0.5, SVG Export Plug-In . SVG Version: 6.00 Build 0)  -->
<svg version="1.1" id="Layer_1" xmlns="http://www.w3.org/2000/svg" xmlns:xlink="http://www.w3.org/1999/xlink" x="0px" y="0px"
	 viewBox="0 0 3600 3600" style="enable-background:new 0 0 3600 3600;" xml:space="preserve">
<style type="text/css">
	.st0{display:none;fill:#CC4062;}
	.st1{fill:#3D5DA3;}
	.st2{display:none;fill:#3F4295;}
	.st3{display:none;}
	.st4{display:inline;fill:none;stroke:#000000;stroke-width:150;stroke-miterlimit:10;}
</style>
<rect x="54" y="91.6" class="st0" width="3456" height="3394.2"/>
<image style="overflow:visible;" width="168" height="168" xlink:href="WhatsApp Image 2023-07-10 at 16.18.31.jpg"  transform="matrix(21.4286 0 0 21.4286 -4430.2979 263.4893)">
</image>
<path class="st1" d="M630,890h2260c116,0,210,94,210,210v158l0,0H420l0,0v-158C420,984,514,890,630,890z"/>
<path class="st2" d="M-4058.1,3653.6h62l0,0v40.1c0,3.7-3,6.7-6.7,6.7l0,0h-48.7c-3.7,0-6.7-3-6.7-6.7l0,0V3653.6L-4058.1,3653.6z"
	/>
<text transform="matrix(1.0307 -0.3178 0.4057 0.914 -4029.9573 3696.2197)" style="fill:#FFFFFF; font-family:'MagicSound'; font-size:33.2434px;">M</text>
<path class="st2" d="M-4056.1,3642.3h58c3,0,5.4,2.4,5.4,5.4v4.1l0,0h-68.7l0,0v-4.1C-4061.5,3644.7-4059.1,3642.3-4056.1,3642.3z"
	/>
<g class="st3">
	<path class="st4" d="M736.1,506.3c0,0,85.8,151.1,302.3,236.9s498.4-28.6,498.4-28.6s-384-445.3-138.9-510.6
		c0,0,167.3-85.8,351.2,351.3c0,0,216.6-512,380-358.1c0,0,159.3,125.3-89.9,488.9c0,0,428.9,269.6,751.7-134.8"/>
</g>
<path class="st1" d="M754.9,469.2L808,718.1c0,0,216.5,282.9,853.4,26.9c0,0-491.4-603.4-160.5-454.8c84.4,34.5,268,407.5,268,407.5
	s310.6-699.7,347.4-384.1c0,0,44.9,158.3-181.9,391.7c0,0,402.9,326.3,813.4-1.5l39.7-203.7c0,0-264.1,305.9-640.2,156.3
	c0,0,372.3-439.7-73.5-563.7c0,0-147.1-33.7-324.8,289.5c0,0-171.6-330.9-376.9-248.2c0,0-312.5,64.3,36.8,542.3
	C1409,676.3,994.1,802.9,754.9,469.2z"/>
<g>
	<path class="st1" d="M1847.1,3136.8c-102.7-86-242.8-297.3-420.3-634.1c-129.5-246.7-223.8-472.5-282.7-677.3
		c-0.9-41.6,14.3-74.1,45.7-97.6c107.6-115.6,213.2-188.4,316.8-218.3c50.8-14.3,207,101.6,468.6,347.5
		c-18.1-122.2-14.4-257.4,11.1-405.7c4.8-12.6,14.9-21,30.3-25.3c128.1-59.2,273.9-86.4,437.6-81.4c48.5-2,105.9,47.7,172.2,149.1
		c76.2,101.3,191.4,304.1,345.6,608.6V1331H555v1562c0,143.6,116.4,260,260,260h1059.3C1864,3147.8,1854.9,3142.3,1847.1,3136.8z"/>
	<path class="st1" d="M2745.6,2852.3c-114.1-232.9-236.8-533.8-367.9-902.6c32.7,157.8,40.1,299.6,22.4,425.4
		c-10.1,64.6-45.9,103.3-107.1,116.1c-56.7,8.6-125.3-17.3-205.8-77.5c-89.1-60-190.7-134-304.6-222
		c286.5,356.7,466.9,618,541.1,784.1c52.8,105.5,67.2,155,60.7,177.1H2712c141.9,0,257.2-113.6,259.9-254.8
		C2882.5,2909.7,2772.3,2894.5,2745.6,2852.3z"/>
</g>
</svg>
