<svg xmlns="http://www.w3.org/2000/svg" width="42" height="42" viewBox="0 0 42 42">
  <g id="Group_8613" data-name="Group 8613" transform="translate(0.416)">
    <g id="Ellipse_20" data-name="Ellipse 20" transform="translate(-0.416)" fill="rgba(236,241,244,0.4)" stroke="#ecf1f4" stroke-width="1">
      <circle cx="21" cy="21" r="21" stroke="none"/>
      <circle cx="21" cy="21" r="20.5" fill="none"/>
    </g>
    <path id="youtube" d="M10.392,16.47V11.234l5.033,2.627Zm11.054-6.142a4.022,4.022,0,0,0-.741-1.85,2.666,2.666,0,0,0-1.867-.789C16.232,7.5,12.32,7.5,12.32,7.5h-.007s-3.911,0-6.518.188a2.666,2.666,0,0,0-1.867.789,4.029,4.029,0,0,0-.741,1.85A28.187,28.187,0,0,0,3,13.343v1.414a28.2,28.2,0,0,0,.186,3.016,4.023,4.023,0,0,0,.741,1.85,3.153,3.153,0,0,0,2.055.8c1.491.142,6.335.186,6.335.186s3.916-.006,6.523-.194a2.665,2.665,0,0,0,1.867-.789,4.028,4.028,0,0,0,.741-1.85,28.2,28.2,0,0,0,.186-3.016V13.343a28.172,28.172,0,0,0-.186-3.016Z" transform="translate(8.436 7.153)" fill="#0d1936" fill-rule="evenodd"/>
  </g>
</svg>
