<svg xmlns="http://www.w3.org/2000/svg" width="42" height="42" viewBox="0 0 42 42">
  <g id="Group_8610" data-name="Group 8610" transform="translate(0.244)">
    <g id="Ellipse_23" data-name="Ellipse 23" transform="translate(-0.244)" fill="rgba(236,241,244,0.4)" stroke="#ecf1f4" stroke-width="1">
      <circle cx="21" cy="21" r="21" stroke="none"/>
      <circle cx="21" cy="21" r="20.5" fill="none"/>
    </g>
    <path id="twitter-bird" d="M17.627,1.7A7.322,7.322,0,0,1,15.82,3.563q.011.207.011.468a10.387,10.387,0,0,1-1.715,5.686,10.986,10.986,0,0,1-2.07,2.355,9.228,9.228,0,0,1-2.888,1.636,10.548,10.548,0,0,1-3.615.61A10.065,10.065,0,0,1,0,12.694a7.819,7.819,0,0,0,.863.05,7.09,7.09,0,0,0,4.492-1.549,3.509,3.509,0,0,1-2.1-.722,3.554,3.554,0,0,1-1.276-1.79,3.615,3.615,0,0,0,1.633-.061A3.525,3.525,0,0,1,1.535,7.377a3.5,3.5,0,0,1-.825-2.3V5.034a3.569,3.569,0,0,0,1.638.452A3.592,3.592,0,0,1,1.174,4.2a3.529,3.529,0,0,1-.434-1.72A3.553,3.553,0,0,1,1.228.661a10.3,10.3,0,0,0,3.3,2.669A10.049,10.049,0,0,0,8.681,4.44a3.536,3.536,0,0,1-.095-.823,3.484,3.484,0,0,1,1.06-2.556,3.618,3.618,0,0,1,5.2.081,7.2,7.2,0,0,0,2.3-.878,3.5,3.5,0,0,1-1.588,2A7.227,7.227,0,0,0,17.627,1.7Z" transform="translate(12.719 14.167)" fill="#0d1936"/>
  </g>
</svg>
